<svg xmlns="http://www.w3.org/2000/svg" viewBox="0 0 512 512" width="512" height="512">
  <rect width="512" height="512" fill="#0B0B0B"/>
  <g transform="translate(256 188) scale(2.08) translate(-176 -176)">
    <path fill="#FFFFFF" d="M124.497 236.057L226.107 116.237L225.816 161.189C222.205 165.295 221.465 170.585 204.635 182.995C187.815 195.405 138.065 227.365 124.497 236.057ZM130.031 237.06C142.891 235.13 191.081 235.09 207.191 225.49C223.291 215.9 223.421 187.17 226.671 179.5C219.181 185.187 197.671 203.647 181.671 213.117C165.671 222.587 139.191 232.527 130.031 237.06Z"/>
  </g>
  <rect x="138" y="326" width="236" height="100" rx="16" fill="#CCFF00"/>
  <text x="256" y="376" fill="#0B0B0B" font-family="Arial, Helvetica, sans-serif" font-size="56" font-weight="800" text-anchor="middle" dominant-baseline="central">BETA</text>
</svg>
