<svg xmlns="http://www.w3.org/2000/svg" viewBox="0 0 240 240" role="img" aria-label="Guardian Intelligence mark">
  <rect width="240" height="240" rx="32" fill="#101413"/>
  <path d="M120 28 198 62v61c0 49-31 78-78 96-47-18-78-47-78-96V62l78-34Z" fill="#80e7d2"/>
  <path d="M120 52 176 76v46c0 34-20 55-56 71-36-16-56-37-56-71V76l56-24Z" fill="#101413"/>
  <path d="M120 78c22 0 40 18 40 40 0 29-22 46-40 54-18-8-40-25-40-54 0-22 18-40 40-40Z" fill="#80e7d2"/>
  <circle cx="120" cy="118" r="18" fill="#101413"/>
</svg>
